STARTFONT 2.1
FONT pc6x10
SIZE 10 75 75
FONTBOUNDINGBOX 6 10 0 -2
STARTPROPERTIES 3
FONT_ASCENT 8
FONT_DESCENT 2
DEFAULT_CHAR 0
ENDPROPERTIES
CHARS 256
STARTCHAR null
ENCODING 0
SWIDTH 666 0
DWIDTH 6 0
BBX 6 10 0 -2
BITMAP
00
00
00
00
00
00
00
00
00
00
ENDCHAR
STARTCHAR smiley
ENCODING 1
SWIDTH 666 0
DWIDTH 6 0
BBX 6 10 0 -2
BITMAP
00
78
84
cc
84
b4
84
78
00
00
ENDCHAR
STARTCHAR reverse_smiley
ENCODING 2
SWIDTH 666 0
DWIDTH 6 0
BBX 6 10 0 -2
BITMAP
00
78
fc
b4
fc
84
cc
78
00
00
ENDCHAR
STARTCHAR heart
ENCODING 3
SWIDTH 666 0
DWIDTH 6 0
BBX 6 10 0 -2
BITMAP
00
00
50
f8
f8
f8
70
20
00
00
ENDCHAR
STARTCHAR diamond
ENCODING 4
SWIDTH 666 0
DWIDTH 6 0
BBX 6 10 0 -2
BITMAP
00
00
20
70
f8
70
20
00
00
00
ENDCHAR
STARTCHAR club
ENCODING 5
SWIDTH 666 0
DWIDTH 6 0
BBX 6 10 0 -2
BITMAP
00
20
70
20
d8
d8
20
70
00
00
ENDCHAR
STARTCHAR spade
ENCODING 6
SWIDTH 666 0
DWIDTH 6 0
BBX 6 10 0 -2
BITMAP
00
20
70
f8
f8
f8
20
70
00
00
ENDCHAR
STARTCHAR spot
ENCODING 7
SWIDTH 666 0
DWIDTH 6 0
BBX 6 10 0 -2
BITMAP
00
00
00
30
78
78
30
00
00
00
ENDCHAR
STARTCHAR reverse_spot
ENCODING 8
SWIDTH 666 0
DWIDTH 6 0
BBX 6 10 0 -2
BITMAP
fc
fc
fc
cc
84
84
cc
fc
fc
fc
ENDCHAR
STARTCHAR circle
ENCODING 9
SWIDTH 666 0
DWIDTH 6 0
BBX 6 10 0 -2
BITMAP
00
00
00
30
48
48
30
00
00
00
ENDCHAR
STARTCHAR reverse_circle
ENCODING 10
SWIDTH 666 0
DWIDTH 6 0
BBX 6 10 0 -2
BITMAP
fc
fc
fc
cc
b4
b4
cc
fc
fc
fc
ENDCHAR
STARTCHAR male
ENCODING 11
SWIDTH 666 0
DWIDTH 6 0
BBX 6 10 0 -2
BITMAP
00
38
18
28
70
88
88
70
00
00
ENDCHAR
STARTCHAR female
ENCODING 12
SWIDTH 666 0
DWIDTH 6 0
BBX 6 10 0 -2
BITMAP
00
70
88
88
70
20
70
20
00
00
ENDCHAR
STARTCHAR note
ENCODING 13
SWIDTH 666 0
DWIDTH 6 0
BBX 6 10 0 -2
BITMAP
00
3c
3c
20
20
20
60
c0
00
00
ENDCHAR
STARTCHAR note2
ENCODING 14
SWIDTH 666 0
DWIDTH 6 0
BBX 6 10 0 -2
BITMAP
00
7c
7c
44
44
44
4c
c8
80
00
ENDCHAR
STARTCHAR sun
ENCODING 15
SWIDTH 666 0
DWIDTH 6 0
BBX 6 10 0 -2
BITMAP
00
20
a8
50
d8
50
a8
20
00
00
ENDCHAR
STARTCHAR right_wedge
ENCODING 16
SWIDTH 666 0
DWIDTH 6 0
BBX 6 10 0 -2
BITMAP
00
80
c0
e0
f8
e0
c0
80
00
00
ENDCHAR
STARTCHAR left_wedge
ENCODING 17
SWIDTH 666 0
DWIDTH 6 0
BBX 6 10 0 -2
BITMAP
00
08
18
38
f8
38
18
08
00
00
ENDCHAR
STARTCHAR vdbl_arrow
ENCODING 18
SWIDTH 666 0
DWIDTH 6 0
BBX 6 10 0 -2
BITMAP
00
20
70
20
20
20
70
20
00
00
ENDCHAR
STARTCHAR dbl_exclamation
ENCODING 19
SWIDTH 666 0
DWIDTH 6 0
BBX 6 10 0 -2
BITMAP
00
48
48
48
48
48
00
48
00
00
ENDCHAR
STARTCHAR paragraph
ENCODING 20
SWIDTH 666 0
DWIDTH 6 0
BBX 6 10 0 -2
BITMAP
00
7c
a8
a8
68
28
28
28
00
00
ENDCHAR
STARTCHAR section
ENCODING 21
SWIDTH 666 0
DWIDTH 6 0
BBX 6 10 0 -2
BITMAP
00
70
88
60
50
88
50
30
88
70
ENDCHAR
STARTCHAR hblock
ENCODING 22
SWIDTH 666 0
DWIDTH 6 0
BBX 6 10 0 -2
BITMAP
00
00
00
00
00
f8
f8
f8
00
00
ENDCHAR
STARTCHAR ul_vdbl_arrow
ENCODING 23
SWIDTH 666 0
DWIDTH 6 0
BBX 6 10 0 -2
BITMAP
00
20
70
20
20
20
70
20
f8
00
ENDCHAR
STARTCHAR up_arrow
ENCODING 24
SWIDTH 666 0
DWIDTH 6 0
BBX 6 10 0 -2
BITMAP
00
20
70
f8
20
20
20
20
00
00
ENDCHAR
STARTCHAR down_arrow
ENCODING 25
SWIDTH 666 0
DWIDTH 6 0
BBX 6 10 0 -2
BITMAP
00
20
20
20
20
f8
70
20
00
00
ENDCHAR
STARTCHAR right_arrow
ENCODING 26
SWIDTH 666 0
DWIDTH 6 0
BBX 6 10 0 -2
BITMAP
00
00
00
20
10
f8
10
20
00
00
ENDCHAR
STARTCHAR left_arrow
ENCODING 27
SWIDTH 666 0
DWIDTH 6 0
BBX 6 10 0 -2
BITMAP
00
00
00
20
40
f8
40
20
00
00
ENDCHAR
STARTCHAR ul_angle
ENCODING 28
SWIDTH 666 0
DWIDTH 6 0
BBX 6 10 0 -2
BITMAP
00
00
00
80
80
f8
00
00
00
00
ENDCHAR
STARTCHAR hdbl_arrow
ENCODING 29
SWIDTH 666 0
DWIDTH 6 0
BBX 6 10 0 -2
BITMAP
00
00
00
48
fc
48
00
00
00
00
ENDCHAR
STARTCHAR up_wedge
ENCODING 30
SWIDTH 666 0
DWIDTH 6 0
BBX 6 10 0 -2
BITMAP
00
00
20
70
70
f8
f8
00
00
00
ENDCHAR
STARTCHAR down_wedge
ENCODING 31
SWIDTH 666 0
DWIDTH 6 0
BBX 6 10 0 -2
BITMAP
00
00
f8
f8
70
70
20
00
00
00
ENDCHAR
STARTCHAR space
ENCODING 32
SWIDTH 666 0
DWIDTH 6 0
BBX 6 10 0 -2
BITMAP
00
00
00
00
00
00
00
00
00
00
ENDCHAR
STARTCHAR !
ENCODING 33
SWIDTH 666 0
DWIDTH 6 0
BBX 6 10 0 -2
BITMAP
00
20
70
70
20
20
00
20
00
00
ENDCHAR
STARTCHAR "
ENCODING 34
SWIDTH 666 0
DWIDTH 6 0
BBX 6 10 0 -2
BITMAP
00
50
50
50
00
00
00
00
00
00
ENDCHAR
STARTCHAR #
ENCODING 35
SWIDTH 666 0
DWIDTH 6 0
BBX 6 10 0 -2
BITMAP
00
50
50
f8
50
f8
50
50
00
00
ENDCHAR
STARTCHAR $
ENCODING 36
SWIDTH 666 0
DWIDTH 6 0
BBX 6 10 0 -2
BITMAP
00
20
70
a0
70
28
70
20
00
00
ENDCHAR
STARTCHAR %
ENCODING 37
SWIDTH 666 0
DWIDTH 6 0
BBX 6 10 0 -2
BITMAP
00
48
a8
50
20
50
a8
90
00
00
ENDCHAR
STARTCHAR &
ENCODING 38
SWIDTH 666 0
DWIDTH 6 0
BBX 6 10 0 -2
BITMAP
00
40
a0
a0
40
b0
90
68
00
00
ENDCHAR
STARTCHAR '
ENCODING 39
SWIDTH 666 0
DWIDTH 6 0
BBX 6 10 0 -2
BITMAP
00
30
20
40
00
00
00
00
00
00
ENDCHAR
STARTCHAR (
ENCODING 40
SWIDTH 666 0
DWIDTH 6 0
BBX 6 10 0 -2
BITMAP
00
10
20
40
40
40
20
10
00
00
ENDCHAR
STARTCHAR )
ENCODING 41
SWIDTH 666 0
DWIDTH 6 0
BBX 6 10 0 -2
BITMAP
00
20
10
08
08
08
10
20
00
00
ENDCHAR
STARTCHAR *
ENCODING 42
SWIDTH 666 0
DWIDTH 6 0
BBX 6 10 0 -2
BITMAP
00
00
88
50
f8
50
88
00
00
00
ENDCHAR
STARTCHAR +
ENCODING 43
SWIDTH 666 0
DWIDTH 6 0
BBX 6 10 0 -2
BITMAP
00
00
20
20
f8
20
20
00
00
00
ENDCHAR
STARTCHAR ,
ENCODING 44
SWIDTH 666 0
DWIDTH 6 0
BBX 6 10 0 -2
BITMAP
00
00
00
00
00
00
30
20
40
00
ENDCHAR
STARTCHAR -
ENCODING 45
SWIDTH 666 0
DWIDTH 6 0
BBX 6 10 0 -2
BITMAP
00
00
00
00
f8
00
00
00
00
00
ENDCHAR
STARTCHAR .
ENCODING 46
SWIDTH 666 0
DWIDTH 6 0
BBX 6 10 0 -2
BITMAP
00
00
00
00
00
00
20
70
20
00
ENDCHAR
STARTCHAR /
ENCODING 47
SWIDTH 666 0
DWIDTH 6 0
BBX 6 10 0 -2
BITMAP
00
08
08
10
20
40
80
80
00
00
ENDCHAR
STARTCHAR 0
ENCODING 48
SWIDTH 666 0
DWIDTH 6 0
BBX 6 10 0 -2
BITMAP
00
20
50
88
88
88
50
20
00
00
ENDCHAR
STARTCHAR 1
ENCODING 49
SWIDTH 666 0
DWIDTH 6 0
BBX 6 10 0 -2
BITMAP
00
20
60
a0
20
20
20
f8
00
00
ENDCHAR
STARTCHAR 2
ENCODING 50
SWIDTH 666 0
DWIDTH 6 0
BBX 6 10 0 -2
BITMAP
00
70
88
08
30
40
80
f8
00
00
ENDCHAR
STARTCHAR 3
ENCODING 51
SWIDTH 666 0
DWIDTH 6 0
BBX 6 10 0 -2
BITMAP
00
f8
08
10
30
08
88
70
00
00
ENDCHAR
STARTCHAR 4
ENCODING 52
SWIDTH 666 0
DWIDTH 6 0
BBX 6 10 0 -2
BITMAP
00
10
30
50
90
f8
10
10
00
00
ENDCHAR
STARTCHAR 5
ENCODING 53
SWIDTH 666 0
DWIDTH 6 0
BBX 6 10 0 -2
BITMAP
00
f8
80
b0
c8
08
88
70
00
00
ENDCHAR
STARTCHAR 6
ENCODING 54
SWIDTH 666 0
DWIDTH 6 0
BBX 6 10 0 -2
BITMAP
00
30
40
80
b0
c8
88
70
00
00
ENDCHAR
STARTCHAR 7
ENCODING 55
SWIDTH 666 0
DWIDTH 6 0
BBX 6 10 0 -2
BITMAP
00
f8
08
10
10
20
40
40
00
00
ENDCHAR
STARTCHAR 8
ENCODING 56
SWIDTH 666 0
DWIDTH 6 0
BBX 6 10 0 -2
BITMAP
00
70
88
88
70
88
88
70
00
00
ENDCHAR
STARTCHAR 9
ENCODING 57
SWIDTH 666 0
DWIDTH 6 0
BBX 6 10 0 -2
BITMAP
00
70
88
98
68
08
10
60
00
00
ENDCHAR
STARTCHAR :
ENCODING 58
SWIDTH 666 0
DWIDTH 6 0
BBX 6 10 0 -2
BITMAP
00
00
20
70
20
00
20
70
20
00
ENDCHAR
STARTCHAR ;
ENCODING 59
SWIDTH 666 0
DWIDTH 6 0
BBX 6 10 0 -2
BITMAP
00
00
20
70
20
00
30
20
40
00
ENDCHAR
STARTCHAR <
ENCODING 60
SWIDTH 666 0
DWIDTH 6 0
BBX 6 10 0 -2
BITMAP
00
08
10
20
40
20
10
08
00
00
ENDCHAR
STARTCHAR =
ENCODING 61
SWIDTH 666 0
DWIDTH 6 0
BBX 6 10 0 -2
BITMAP
00
00
00
f8
00
f8
00
00
00
00
ENDCHAR
STARTCHAR >
ENCODING 62
SWIDTH 666 0
DWIDTH 6 0
BBX 6 10 0 -2
BITMAP
00
40
20
10
08
10
20
40
00
00
ENDCHAR
STARTCHAR ?
ENCODING 63
SWIDTH 666 0
DWIDTH 6 0
BBX 6 10 0 -2
BITMAP
00
70
88
10
20
20
00
20
00
00
ENDCHAR
STARTCHAR @
ENCODING 64
SWIDTH 666 0
DWIDTH 6 0
BBX 6 10 0 -2
BITMAP
00
70
88
98
a8
b0
80
70
00
00
ENDCHAR
STARTCHAR A
ENCODING 65
SWIDTH 666 0
DWIDTH 6 0
BBX 6 10 0 -2
BITMAP
00
20
50
88
88
f8
88
88
00
00
ENDCHAR
STARTCHAR B
ENCODING 66
SWIDTH 666 0
DWIDTH 6 0
BBX 6 10 0 -2
BITMAP
00
f0
48
48
70
48
48
f0
00
00
ENDCHAR
STARTCHAR C
ENCODING 67
SWIDTH 666 0
DWIDTH 6 0
BBX 6 10 0 -2
BITMAP
00
70
88
80
80
80
88
70
00
00
ENDCHAR
STARTCHAR D
ENCODING 68
SWIDTH 666 0
DWIDTH 6 0
BBX 6 10 0 -2
BITMAP
00
f0
48
48
48
48
48
f0
00
00
ENDCHAR
STARTCHAR E
ENCODING 69
SWIDTH 666 0
DWIDTH 6 0
BBX 6 10 0 -2
BITMAP
00
f8
80
80
f0
80
80
f8
00
00
ENDCHAR
STARTCHAR F
ENCODING 70
SWIDTH 666 0
DWIDTH 6 0
BBX 6 10 0 -2
BITMAP
00
f8
80
80
f0
80
80
80
00
00
ENDCHAR
STARTCHAR G
ENCODING 71
SWIDTH 666 0
DWIDTH 6 0
BBX 6 10 0 -2
BITMAP
00
70
88
80
80
98
88
70
00
00
ENDCHAR
STARTCHAR H
ENCODING 72
SWIDTH 666 0
DWIDTH 6 0
BBX 6 10 0 -2
BITMAP
00
88
88
88
f8
88
88
88
00
00
ENDCHAR
STARTCHAR I
ENCODING 73
SWIDTH 666 0
DWIDTH 6 0
BBX 6 10 0 -2
BITMAP
00
70
20
20
20
20
20
70
00
00
ENDCHAR
STARTCHAR J
ENCODING 74
SWIDTH 666 0
DWIDTH 6 0
BBX 6 10 0 -2
BITMAP
00
38
08
08
08
08
88
70
00
00
ENDCHAR
STARTCHAR K
ENCODING 75
SWIDTH 666 0
DWIDTH 6 0
BBX 6 10 0 -2
BITMAP
00
88
90
a0
c0
a0
90
88
00
00
ENDCHAR
STARTCHAR L
ENCODING 76
SWIDTH 666 0
DWIDTH 6 0
BBX 6 10 0 -2
BITMAP
00
80
80
80
80
80
80
f8
00
00
ENDCHAR
STARTCHAR M
ENCODING 77
SWIDTH 666 0
DWIDTH 6 0
BBX 6 10 0 -2
BITMAP
00
88
88
d8
a8
88
88
88
00
00
ENDCHAR
STARTCHAR N
ENCODING 78
SWIDTH 666 0
DWIDTH 6 0
BBX 6 10 0 -2
BITMAP
00
88
88
c8
a8
98
88
88
00
00
ENDCHAR
STARTCHAR O
ENCODING 79
SWIDTH 666 0
DWIDTH 6 0
BBX 6 10 0 -2
BITMAP
00
70
88
88
88
88
88
70
00
00
ENDCHAR
STARTCHAR P
ENCODING 80
SWIDTH 666 0
DWIDTH 6 0
BBX 6 10 0 -2
BITMAP
00
f0
88
88
f0
80
80
80
00
00
ENDCHAR
STARTCHAR Q
ENCODING 81
SWIDTH 666 0
DWIDTH 6 0
BBX 6 10 0 -2
BITMAP
00
70
88
88
88
88
a8
70
08
00
ENDCHAR
STARTCHAR R
ENCODING 82
SWIDTH 666 0
DWIDTH 6 0
BBX 6 10 0 -2
BITMAP
00
f0
88
88
f0
a0
90
88
00
00
ENDCHAR
STARTCHAR S
ENCODING 83
SWIDTH 666 0
DWIDTH 6 0
BBX 6 10 0 -2
BITMAP
00
70
88
80
70
08
88
70
00
00
ENDCHAR
STARTCHAR T
ENCODING 84
SWIDTH 666 0
DWIDTH 6 0
BBX 6 10 0 -2
BITMAP
00
f8
20
20
20
20
20
20
00
00
ENDCHAR
STARTCHAR U
ENCODING 85
SWIDTH 666 0
DWIDTH 6 0
BBX 6 10 0 -2
BITMAP
00
88
88
88
88
88
88
70
00
00
ENDCHAR
STARTCHAR V
ENCODING 86
SWIDTH 666 0
DWIDTH 6 0
BBX 6 10 0 -2
BITMAP
00
88
88
88
50
50
50
20
00
00
ENDCHAR
STARTCHAR W
ENCODING 87
SWIDTH 666 0
DWIDTH 6 0
BBX 6 10 0 -2
BITMAP
00
88
88
88
a8
a8
d8
88
00
00
ENDCHAR
STARTCHAR X
ENCODING 88
SWIDTH 666 0
DWIDTH 6 0
BBX 6 10 0 -2
BITMAP
00
88
88
50
20
50
88
88
00
00
ENDCHAR
STARTCHAR Y
ENCODING 89
SWIDTH 666 0
DWIDTH 6 0
BBX 6 10 0 -2
BITMAP
00
88
88
50
20
20
20
20
00
00
ENDCHAR
STARTCHAR Z
ENCODING 90
SWIDTH 666 0
DWIDTH 6 0
BBX 6 10 0 -2
BITMAP
00
f8
08
10
20
40
80
f8
00
00
ENDCHAR
STARTCHAR [
ENCODING 91
SWIDTH 666 0
DWIDTH 6 0
BBX 6 10 0 -2
BITMAP
00
70
40
40
40
40
40
70
00
00
ENDCHAR
STARTCHAR \
ENCODING 92
SWIDTH 666 0
DWIDTH 6 0
BBX 6 10 0 -2
BITMAP
00
80
80
40
20
10
08
08
00
00
ENDCHAR
STARTCHAR ]
ENCODING 93
SWIDTH 666 0
DWIDTH 6 0
BBX 6 10 0 -2
BITMAP
00
38
08
08
08
08
08
38
00
00
ENDCHAR
STARTCHAR ^
ENCODING 94
SWIDTH 666 0
DWIDTH 6 0
BBX 6 10 0 -2
BITMAP
00
20
50
88
00
00
00
00
00
00
ENDCHAR
STARTCHAR _
ENCODING 95
SWIDTH 666 0
DWIDTH 6 0
BBX 6 10 0 -2
BITMAP
00
00
00
00
00
00
00
00
fc
00
ENDCHAR
STARTCHAR `
ENCODING 96
SWIDTH 666 0
DWIDTH 6 0
BBX 6 10 0 -2
BITMAP
00
60
20
10
00
00
00
00
00
00
ENDCHAR
STARTCHAR a
ENCODING 97
SWIDTH 666 0
DWIDTH 6 0
BBX 6 10 0 -2
BITMAP
00
00
00
70
08
78
88
78
00
00
ENDCHAR
STARTCHAR b
ENCODING 98
SWIDTH 666 0
DWIDTH 6 0
BBX 6 10 0 -2
BITMAP
00
80
80
b0
c8
88
c8
b0
00
00
ENDCHAR
STARTCHAR c
ENCODING 99
SWIDTH 666 0
DWIDTH 6 0
BBX 6 10 0 -2
BITMAP
00
00
00
70
88
80
88
70
00
00
ENDCHAR
STARTCHAR d
ENCODING 100
SWIDTH 666 0
DWIDTH 6 0
BBX 6 10 0 -2
BITMAP
00
08
08
68
98
88
98
68
00
00
ENDCHAR
STARTCHAR e
ENCODING 101
SWIDTH 666 0
DWIDTH 6 0
BBX 6 10 0 -2
BITMAP
00
00
00
70
88
f8
80
70
00
00
ENDCHAR
STARTCHAR f
ENCODING 102
SWIDTH 666 0
DWIDTH 6 0
BBX 6 10 0 -2
BITMAP
00
30
48
40
f0
40
40
40
00
00
ENDCHAR
STARTCHAR g
ENCODING 103
SWIDTH 666 0
DWIDTH 6 0
BBX 6 10 0 -2
BITMAP
00
00
00
68
90
60
80
70
88
70
ENDCHAR
STARTCHAR h
ENCODING 104
SWIDTH 666 0
DWIDTH 6 0
BBX 6 10 0 -2
BITMAP
00
80
80
b0
c8
88
88
88
00
00
ENDCHAR
STARTCHAR i
ENCODING 105
SWIDTH 666 0
DWIDTH 6 0
BBX 6 10 0 -2
BITMAP
00
20
00
60
20
20
20
70
00
00
ENDCHAR
STARTCHAR j
ENCODING 106
SWIDTH 666 0
DWIDTH 6 0
BBX 6 10 0 -2
BITMAP
00
10
00
30
10
10
10
90
90
60
ENDCHAR
STARTCHAR k
ENCODING 107
SWIDTH 666 0
DWIDTH 6 0
BBX 6 10 0 -2
BITMAP
00
80
80
88
90
e0
90
88
00
00
ENDCHAR
STARTCHAR l
ENCODING 108
SWIDTH 666 0
DWIDTH 6 0
BBX 6 10 0 -2
BITMAP
00
60
20
20
20
20
20
70
00
00
ENDCHAR
STARTCHAR m
ENCODING 109
SWIDTH 666 0
DWIDTH 6 0
BBX 6 10 0 -2
BITMAP
00
00
00
d0
a8
a8
a8
88
00
00
ENDCHAR
STARTCHAR n
ENCODING 110
SWIDTH 666 0
DWIDTH 6 0
BBX 6 10 0 -2
BITMAP
00
00
00
b0
c8
88
88
88
00
00
ENDCHAR
STARTCHAR o
ENCODING 111
SWIDTH 666 0
DWIDTH 6 0
BBX 6 10 0 -2
BITMAP
00
00
00
70
88
88
88
70
00
00
ENDCHAR
STARTCHAR p
ENCODING 112
SWIDTH 666 0
DWIDTH 6 0
BBX 6 10 0 -2
BITMAP
00
00
00
b0
c8
c8
b0
80
80
80
ENDCHAR
STARTCHAR q
ENCODING 113
SWIDTH 666 0
DWIDTH 6 0
BBX 6 10 0 -2
BITMAP
00
00
00
68
98
98
68
08
08
08
ENDCHAR
STARTCHAR r
ENCODING 114
SWIDTH 666 0
DWIDTH 6 0
BBX 6 10 0 -2
BITMAP
00
00
00
b0
c8
80
80
80
00
00
ENDCHAR
STARTCHAR s
ENCODING 115
SWIDTH 666 0
DWIDTH 6 0
BBX 6 10 0 -2
BITMAP
00
00
00
70
80
70
08
f0
00
00
ENDCHAR
STARTCHAR t
ENCODING 116
SWIDTH 666 0
DWIDTH 6 0
BBX 6 10 0 -2
BITMAP
00
40
40
f0
40
40
48
30
00
00
ENDCHAR
STARTCHAR u
ENCODING 117
SWIDTH 666 0
DWIDTH 6 0
BBX 6 10 0 -2
BITMAP
00
00
00
88
88
88
98
68
00
00
ENDCHAR
STARTCHAR v
ENCODING 118
SWIDTH 666 0
DWIDTH 6 0
BBX 6 10 0 -2
BITMAP
00
00
00
88
88
50
50
20
00
00
ENDCHAR
STARTCHAR w
ENCODING 119
SWIDTH 666 0
DWIDTH 6 0
BBX 6 10 0 -2
BITMAP
00
00
00
88
88
a8
a8
50
00
00
ENDCHAR
STARTCHAR x
ENCODING 120
SWIDTH 666 0
DWIDTH 6 0
BBX 6 10 0 -2
BITMAP
00
00
00
88
50
20
50
88
00
00
ENDCHAR
STARTCHAR y
ENCODING 121
SWIDTH 666 0
DWIDTH 6 0
BBX 6 10 0 -2
BITMAP
00
00
00
88
88
98
68
08
88
70
ENDCHAR
STARTCHAR z
ENCODING 122
SWIDTH 666 0
DWIDTH 6 0
BBX 6 10 0 -2
BITMAP
00
00
00
f8
10
20
40
f8
00
00
ENDCHAR
STARTCHAR {
ENCODING 123
SWIDTH 666 0
DWIDTH 6 0
BBX 6 10 0 -2
BITMAP
00
18
20
10
60
10
20
18
00
00
ENDCHAR
STARTCHAR |
ENCODING 124
SWIDTH 666 0
DWIDTH 6 0
BBX 6 10 0 -2
BITMAP
00
20
20
20
20
20
20
20
00
00
ENDCHAR
STARTCHAR }
ENCODING 125
SWIDTH 666 0
DWIDTH 6 0
BBX 6 10 0 -2
BITMAP
00
60
10
20
18
20
10
60
00
00
ENDCHAR
STARTCHAR ~
ENCODING 126
SWIDTH 666 0
DWIDTH 6 0
BBX 6 10 0 -2
BITMAP
00
48
a8
90
00
00
00
00
00
00
ENDCHAR
STARTCHAR delta
ENCODING 127
SWIDTH 666 0
DWIDTH 6 0
BBX 6 10 0 -2
BITMAP
00
00
20
50
88
88
f8
00
00
00
ENDCHAR
STARTCHAR C-cedilla
ENCODING 128
SWIDTH 666 0
DWIDTH 6 0
BBX 6 10 0 -2
BITMAP
00
70
88
80
80
88
70
10
08
70
ENDCHAR
STARTCHAR u-umlaut
ENCODING 129
SWIDTH 666 0
DWIDTH 6 0
BBX 6 10 0 -2
BITMAP
00
50
00
88
88
88
98
68
00
00
ENDCHAR
STARTCHAR e-acute
ENCODING 130
SWIDTH 666 0
DWIDTH 6 0
BBX 6 10 0 -2
BITMAP
18
60
00
70
88
f8
80
70
00
00
ENDCHAR
STARTCHAR a-circumflex
ENCODING 131
SWIDTH 666 0
DWIDTH 6 0
BBX 6 10 0 -2
BITMAP
20
50
00
70
08
78
88
78
00
00
ENDCHAR
STARTCHAR a-umlaut
ENCODING 132
SWIDTH 666 0
DWIDTH 6 0
BBX 6 10 0 -2
BITMAP
00
50
00
70
08
78
88
78
00
00
ENDCHAR
STARTCHAR a-grave
ENCODING 133
SWIDTH 666 0
DWIDTH 6 0
BBX 6 10 0 -2
BITMAP
c0
30
00
70
08
78
88
78
00
00
ENDCHAR
STARTCHAR a-circle
ENCODING 134
SWIDTH 666 0
DWIDTH 6 0
BBX 6 10 0 -2
BITMAP
20
50
20
70
08
78
88
78
00
00
ENDCHAR
STARTCHAR c-cedilla
ENCODING 135
SWIDTH 666 0
DWIDTH 6 0
BBX 6 10 0 -2
BITMAP
00
00
30
48
40
48
30
08
70
00
ENDCHAR
STARTCHAR e-circumflex
ENCODING 136
SWIDTH 666 0
DWIDTH 6 0
BBX 6 10 0 -2
BITMAP
20
50
00
70
88
f8
80
70
00
00
ENDCHAR
STARTCHAR e-umlaut
ENCODING 137
SWIDTH 666 0
DWIDTH 6 0
BBX 6 10 0 -2
BITMAP
00
50
00
70
88
f8
80
70
00
00
ENDCHAR
STARTCHAR e-grave
ENCODING 138
SWIDTH 666 0
DWIDTH 6 0
BBX 6 10 0 -2
BITMAP
c0
30
00
70
88
f8
80
70
00
00
ENDCHAR
STARTCHAR i-umlaut
ENCODING 139
SWIDTH 666 0
DWIDTH 6 0
BBX 6 10 0 -2
BITMAP
00
50
00
60
20
20
20
70
00
00
ENDCHAR
STARTCHAR i-circumflex
ENCODING 140
SWIDTH 666 0
DWIDTH 6 0
BBX 6 10 0 -2
BITMAP
20
50
00
60
20
20
20
70
00
00
ENDCHAR
STARTCHAR i-grave
ENCODING 141
SWIDTH 666 0
DWIDTH 6 0
BBX 6 10 0 -2
BITMAP
c0
30
00
60
20
20
20
70
00
00
ENDCHAR
STARTCHAR A-umlaut
ENCODING 142
SWIDTH 666 0
DWIDTH 6 0
BBX 6 10 0 -2
BITMAP
50
00
20
50
88
f8
88
88
00
00
ENDCHAR
STARTCHAR A-circle
ENCODING 143
SWIDTH 666 0
DWIDTH 6 0
BBX 6 10 0 -2
BITMAP
20
50
20
50
88
f8
88
88
00
00
ENDCHAR
STARTCHAR E-acute
ENCODING 144
SWIDTH 666 0
DWIDTH 6 0
BBX 6 10 0 -2
BITMAP
18
60
00
f8
80
f0
80
f8
00
00
ENDCHAR
STARTCHAR ae
ENCODING 145
SWIDTH 666 0
DWIDTH 6 0
BBX 6 10 0 -2
BITMAP
00
00
00
b0
48
78
a0
d8
00
00
ENDCHAR
STARTCHAR AE
ENCODING 146
SWIDTH 666 0
DWIDTH 6 0
BBX 6 10 0 -2
BITMAP
00
38
50
90
f8
90
90
98
00
00
ENDCHAR
STARTCHAR o-circumflex
ENCODING 147
SWIDTH 666 0
DWIDTH 6 0
BBX 6 10 0 -2
BITMAP
20
50
00
70
88
88
88
70
00
00
ENDCHAR
STARTCHAR o-umlaut
ENCODING 148
SWIDTH 666 0
DWIDTH 6 0
BBX 6 10 0 -2
BITMAP
00
50
00
70
88
88
88
70
00
00
ENDCHAR
STARTCHAR o-grave
ENCODING 149
SWIDTH 666 0
DWIDTH 6 0
BBX 6 10 0 -2
BITMAP
c0
30
00
70
88
88
88
70
00
00
ENDCHAR
STARTCHAR u-circumflex
ENCODING 150
SWIDTH 666 0
DWIDTH 6 0
BBX 6 10 0 -2
BITMAP
20
50
00
88
88
88
98
68
00
00
ENDCHAR
STARTCHAR u-grave
ENCODING 151
SWIDTH 666 0
DWIDTH 6 0
BBX 6 10 0 -2
BITMAP
c0
30
00
88
88
88
98
68
00
00
ENDCHAR
STARTCHAR y-umlaut
ENCODING 152
SWIDTH 666 0
DWIDTH 6 0
BBX 6 10 0 -2
BITMAP
00
50
00
88
88
98
68
08
88
70
ENDCHAR
STARTCHAR O-umlaut
ENCODING 153
SWIDTH 666 0
DWIDTH 6 0
BBX 6 10 0 -2
BITMAP
50
00
70
88
88
88
88
70
00
00
ENDCHAR
STARTCHAR U-umlaut
ENCODING 154
SWIDTH 666 0
DWIDTH 6 0
BBX 6 10 0 -2
BITMAP
50
00
88
88
88
88
88
70
00
00
ENDCHAR
STARTCHAR cents
ENCODING 155
SWIDTH 666 0
DWIDTH 6 0
BBX 6 10 0 -2
BITMAP
00
20
70
88
80
88
70
20
00
00
ENDCHAR
STARTCHAR pounds
ENCODING 156
SWIDTH 666 0
DWIDTH 6 0
BBX 6 10 0 -2
BITMAP
20
50
40
e0
40
40
48
f0
00
00
ENDCHAR
STARTCHAR y-dbl_hash
ENCODING 157
SWIDTH 666 0
DWIDTH 6 0
BBX 6 10 0 -2
BITMAP
00
88
50
20
f8
20
f8
20
00
00
ENDCHAR
STARTCHAR Pt
ENCODING 158
SWIDTH 666 0
DWIDTH 6 0
BBX 6 10 0 -2
BITMAP
00
e0
90
e0
90
b8
90
88
00
00
ENDCHAR
STARTCHAR fancy_f
ENCODING 159
SWIDTH 666 0
DWIDTH 6 0
BBX 6 10 0 -2
BITMAP
00
10
28
20
f8
20
20
a0
40
00
ENDCHAR
STARTCHAR a-acute
ENCODING 160
SWIDTH 666 0
DWIDTH 6 0
BBX 6 10 0 -2
BITMAP
18
60
00
70
08
78
88
78
00
00
ENDCHAR
STARTCHAR i-acute
ENCODING 161
SWIDTH 666 0
DWIDTH 6 0
BBX 6 10 0 -2
BITMAP
18
60
00
60
20
20
20
70
00
00
ENDCHAR
STARTCHAR o-acute
ENCODING 162
SWIDTH 666 0
DWIDTH 6 0
BBX 6 10 0 -2
BITMAP
18
60
00
70
88
88
88
70
00
00
ENDCHAR
STARTCHAR u-acute
ENCODING 163
SWIDTH 666 0
DWIDTH 6 0
BBX 6 10 0 -2
BITMAP
18
60
00
88
88
88
98
68
00
00
ENDCHAR
STARTCHAR n-tilde
ENCODING 164
SWIDTH 666 0
DWIDTH 6 0
BBX 6 10 0 -2
BITMAP
28
50
00
b0
c8
88
88
88
00
00
ENDCHAR
STARTCHAR N-tilde
ENCODING 165
SWIDTH 666 0
DWIDTH 6 0
BBX 6 10 0 -2
BITMAP
28
50
00
88
c8
a8
98
88
00
00
ENDCHAR
STARTCHAR a-super
ENCODING 166
SWIDTH 666 0
DWIDTH 6 0
BBX 6 10 0 -2
BITMAP
00
70
90
90
78
00
f8
00
00
00
ENDCHAR
STARTCHAR o-super
ENCODING 167
SWIDTH 666 0
DWIDTH 6 0
BBX 6 10 0 -2
BITMAP
00
60
90
90
60
00
f0
00
00
00
ENDCHAR
STARTCHAR inverted-?
ENCODING 168
SWIDTH 666 0
DWIDTH 6 0
BBX 6 10 0 -2
BITMAP
00
20
00
20
20
40
88
70
00
00
ENDCHAR
STARTCHAR ll_angle
ENCODING 169
SWIDTH 666 0
DWIDTH 6 0
BBX 6 10 0 -2
BITMAP
00
00
00
00
f8
80
80
00
00
00
ENDCHAR
STARTCHAR lr_angle
ENCODING 170
SWIDTH 666 0
DWIDTH 6 0
BBX 6 10 0 -2
BITMAP
00
00
00
00
f8
08
08
00
00
00
ENDCHAR
STARTCHAR 1/2
ENCODING 171
SWIDTH 666 0
DWIDTH 6 0
BBX 6 10 0 -2
BITMAP
00
80
88
90
a0
50
88
30
38
00
ENDCHAR
STARTCHAR 1/4
ENCODING 172
SWIDTH 666 0
DWIDTH 6 0
BBX 6 10 0 -2
BITMAP
00
80
88
90
a0
48
98
38
08
00
ENDCHAR
STARTCHAR inverted-!
ENCODING 173
SWIDTH 666 0
DWIDTH 6 0
BBX 6 10 0 -2
BITMAP
00
20
00
20
20
70
70
20
00
00
ENDCHAR
STARTCHAR french_lquote
ENCODING 174
SWIDTH 666 0
DWIDTH 6 0
BBX 6 10 0 -2
BITMAP
00
00
28
50
a0
50
28
00
00
00
ENDCHAR
STARTCHAR french_rquote
ENCODING 175
SWIDTH 666 0
DWIDTH 6 0
BBX 6 10 0 -2
BITMAP
00
00
a0
50
28
50
a0
00
00
00
ENDCHAR
STARTCHAR gray1
ENCODING 176
SWIDTH 666 0
DWIDTH 6 0
BBX 6 10 0 -2
BITMAP
20
88
20
88
20
88
20
88
20
88
ENDCHAR
STARTCHAR gray2
ENCODING 177
SWIDTH 666 0
DWIDTH 6 0
BBX 6 10 0 -2
BITMAP
54
a8
54
a8
54
a8
54
a8
54
a8
ENDCHAR
STARTCHAR gray3
ENCODING 178
SWIDTH 666 0
DWIDTH 6 0
BBX 6 10 0 -2
BITMAP
dc
74
dc
74
dc
74
dc
74
dc
74
ENDCHAR
STARTCHAR v_edge
ENCODING 179
SWIDTH 666 0
DWIDTH 6 0
BBX 6 10 0 -2
BITMAP
20
20
20
20
20
20
20
20
20
20
ENDCHAR
STARTCHAR left_tee
ENCODING 180
SWIDTH 666 0
DWIDTH 6 0
BBX 6 10 0 -2
BITMAP
20
20
20
20
e0
20
20
20
20
20
ENDCHAR
STARTCHAR left2_tee
ENCODING 181
SWIDTH 666 0
DWIDTH 6 0
BBX 6 10 0 -2
BITMAP
20
20
20
e0
20
e0
20
20
20
20
ENDCHAR
STARTCHAR left_tee2
ENCODING 182
SWIDTH 666 0
DWIDTH 6 0
BBX 6 10 0 -2
BITMAP
50
50
50
50
d0
50
50
50
50
50
ENDCHAR
STARTCHAR ur2_corner
ENCODING 183
SWIDTH 666 0
DWIDTH 6 0
BBX 6 10 0 -2
BITMAP
00
00
00
00
f0
50
50
50
50
50
ENDCHAR
STARTCHAR u2r_corner
ENCODING 184
SWIDTH 666 0
DWIDTH 6 0
BBX 6 10 0 -2
BITMAP
00
00
00
e0
20
e0
20
20
20
20
ENDCHAR
STARTCHAR left2_tee2
ENCODING 185
SWIDTH 666 0
DWIDTH 6 0
BBX 6 10 0 -2
BITMAP
50
50
50
d0
10
d0
50
50
50
50
ENDCHAR
STARTCHAR v_edge2
ENCODING 186
SWIDTH 666 0
DWIDTH 6 0
BBX 6 10 0 -2
BITMAP
50
50
50
50
50
50
50
50
50
50
ENDCHAR
STARTCHAR ur_corner2
ENCODING 187
SWIDTH 666 0
DWIDTH 6 0
BBX 6 10 0 -2
BITMAP
00
00
00
f0
10
d0
50
50
50
50
ENDCHAR
STARTCHAR lr_corner2
ENCODING 188
SWIDTH 666 0
DWIDTH 6 0
BBX 6 10 0 -2
BITMAP
50
50
50
d0
10
f0
00
00
00
00
ENDCHAR
STARTCHAR lr2_corner
ENCODING 189
SWIDTH 666 0
DWIDTH 6 0
BBX 6 10 0 -2
BITMAP
50
50
50
50
f0
00
00
00
00
00
ENDCHAR
STARTCHAR l2r_corner
ENCODING 190
SWIDTH 666 0
DWIDTH 6 0
BBX 6 10 0 -2
BITMAP
20
20
20
e0
20
e0
00
00
00
00
ENDCHAR
STARTCHAR ur_corner
ENCODING 191
SWIDTH 666 0
DWIDTH 6 0
BBX 6 10 0 -2
BITMAP
00
00
00
00
e0
20
20
20
20
20
ENDCHAR
STARTCHAR ll_corner
ENCODING 192
SWIDTH 666 0
DWIDTH 6 0
BBX 6 10 0 -2
BITMAP
20
20
20
20
3c
00
00
00
00
00
ENDCHAR
STARTCHAR up_tee
ENCODING 193
SWIDTH 666 0
DWIDTH 6 0
BBX 6 10 0 -2
BITMAP
20
20
20
20
fc
00
00
00
00
00
ENDCHAR
STARTCHAR down_tee
ENCODING 194
SWIDTH 666 0
DWIDTH 6 0
BBX 6 10 0 -2
BITMAP
00
00
00
00
fc
20
20
20
20
20
ENDCHAR
STARTCHAR right_tee
ENCODING 195
SWIDTH 666 0
DWIDTH 6 0
BBX 6 10 0 -2
BITMAP
20
20
20
20
3c
20
20
20
20
20
ENDCHAR
STARTCHAR h_edge
ENCODING 196
SWIDTH 666 0
DWIDTH 6 0
BBX 6 10 0 -2
BITMAP
00
00
00
00
fc
00
00
00
00
00
ENDCHAR
STARTCHAR intersect
ENCODING 197
SWIDTH 666 0
DWIDTH 6 0
BBX 6 10 0 -2
BITMAP
20
20
20
20
fc
20
20
20
20
20
ENDCHAR
STARTCHAR right2_tee
ENCODING 198
SWIDTH 666 0
DWIDTH 6 0
BBX 6 10 0 -2
BITMAP
20
20
20
3c
20
3c
20
20
20
20
ENDCHAR
STARTCHAR right_tee2
ENCODING 199
SWIDTH 666 0
DWIDTH 6 0
BBX 6 10 0 -2
BITMAP
50
50
50
50
5c
50
50
50
50
50
ENDCHAR
STARTCHAR ll_corner2
ENCODING 200
SWIDTH 666 0
DWIDTH 6 0
BBX 6 10 0 -2
BITMAP
50
50
50
5c
40
7c
00
00
00
00
ENDCHAR
STARTCHAR ul_corner2
ENCODING 201
SWIDTH 666 0
DWIDTH 6 0
BBX 6 10 0 -2
BITMAP
00
00
00
7c
40
5c
50
50
50
50
ENDCHAR
STARTCHAR up_tee2
ENCODING 202
SWIDTH 666 0
DWIDTH 6 0
BBX 6 10 0 -2
BITMAP
50
50
50
dc
00
fc
00
00
00
00
ENDCHAR
STARTCHAR down_tee2
ENCODING 203
SWIDTH 666 0
DWIDTH 6 0
BBX 6 10 0 -2
BITMAP
00
00
00
fc
00
dc
50
50
50
50
ENDCHAR
STARTCHAR right_tee2
ENCODING 204
SWIDTH 666 0
DWIDTH 6 0
BBX 6 10 0 -2
BITMAP
50
50
50
5c
40
5c
50
50
50
50
ENDCHAR
STARTCHAR h_edge2
ENCODING 205
SWIDTH 666 0
DWIDTH 6 0
BBX 6 10 0 -2
BITMAP
00
00
00
fc
00
fc
00
00
00
00
ENDCHAR
STARTCHAR intersect2
ENCODING 206
SWIDTH 666 0
DWIDTH 6 0
BBX 6 10 0 -2
BITMAP
50
50
50
dc
00
dc
50
50
50
50
ENDCHAR
STARTCHAR up_tee2
ENCODING 207
SWIDTH 666 0
DWIDTH 6 0
BBX 6 10 0 -2
BITMAP
20
20
20
fc
00
fc
00
00
00
00
ENDCHAR
STARTCHAR up2_tee
ENCODING 208
SWIDTH 666 0
DWIDTH 6 0
BBX 6 10 0 -2
BITMAP
50
50
50
50
fc
00
00
00
00
00
ENDCHAR
STARTCHAR down_tee2
ENCODING 209
SWIDTH 666 0
DWIDTH 6 0
BBX 6 10 0 -2
BITMAP
00
00
00
fc
00
fc
20
20
20
20
ENDCHAR
STARTCHAR down2_tee
ENCODING 210
SWIDTH 666 0
DWIDTH 6 0
BBX 6 10 0 -2
BITMAP
00
00
00
00
fc
50
50
50
50
50
ENDCHAR
STARTCHAR ll2_corner
ENCODING 211
SWIDTH 666 0
DWIDTH 6 0
BBX 6 10 0 -2
BITMAP
50
50
50
50
7c
00
00
00
00
00
ENDCHAR
STARTCHAR l2l_corner
ENCODING 212
SWIDTH 666 0
DWIDTH 6 0
BBX 6 10 0 -2
BITMAP
20
20
20
3c
20
3c
00
00
00
00
ENDCHAR
STARTCHAR u2l_corner
ENCODING 213
SWIDTH 666 0
DWIDTH 6 0
BBX 6 10 0 -2
BITMAP
00
00
00
3c
20
3c
20
20
20
20
ENDCHAR
STARTCHAR ul2_corner
ENCODING 214
SWIDTH 666 0
DWIDTH 6 0
BBX 6 10 0 -2
BITMAP
00
00
00
00
7c
50
50
50
50
50
ENDCHAR
STARTCHAR intersect_v2
ENCODING 215
SWIDTH 666 0
DWIDTH 6 0
BBX 6 10 0 -2
BITMAP
50
50
50
50
fc
50
50
50
50
50
ENDCHAR
STARTCHAR intersect_h2
ENCODING 216
SWIDTH 666 0
DWIDTH 6 0
BBX 6 10 0 -2
BITMAP
20
20
20
fc
20
fc
20
20
20
20
ENDCHAR
STARTCHAR lr_corner
ENCODING 217
SWIDTH 666 0
DWIDTH 6 0
BBX 6 10 0 -2
BITMAP
20
20
20
20
e0
00
00
00
00
00
ENDCHAR
STARTCHAR ul_corner
ENCODING 218
SWIDTH 666 0
DWIDTH 6 0
BBX 6 10 0 -2
BITMAP
00
00
00
00
3c
20
20
20
20
20
ENDCHAR
STARTCHAR block
ENCODING 219
SWIDTH 666 0
DWIDTH 6 0
BBX 6 10 0 -2
BITMAP
fc
fc
fc
fc
fc
fc
fc
fc
fc
fc
ENDCHAR
STARTCHAR bottom_block
ENCODING 220
SWIDTH 666 0
DWIDTH 6 0
BBX 6 10 0 -2
BITMAP
00
00
00
00
00
fc
fc
fc
fc
fc
ENDCHAR
STARTCHAR left_block
ENCODING 221
SWIDTH 666 0
DWIDTH 6 0
BBX 6 10 0 -2
BITMAP
e0
e0
e0
e0
e0
e0
e0
e0
e0
e0
ENDCHAR
STARTCHAR left_block
ENCODING 222
SWIDTH 666 0
DWIDTH 6 0
BBX 6 10 0 -2
BITMAP
1c
1c
1c
1c
1c
1c
1c
1c
1c
1c
ENDCHAR
STARTCHAR top_block
ENCODING 223
SWIDTH 666 0
DWIDTH 6 0
BBX 6 10 0 -2
BITMAP
fc
fc
fc
fc
fc
00
00
00
00
00
ENDCHAR
STARTCHAR alpha
ENCODING 224
SWIDTH 666 0
DWIDTH 6 0
BBX 6 10 0 -2
BITMAP
00
00
00
68
90
90
90
68
00
00
ENDCHAR
STARTCHAR beta
ENCODING 225
SWIDTH 666 0
DWIDTH 6 0
BBX 6 10 0 -2
BITMAP
00
00
70
88
f0
88
88
f0
80
00
ENDCHAR
STARTCHAR GAMMA
ENCODING 226
SWIDTH 666 0
DWIDTH 6 0
BBX 6 10 0 -2
BITMAP
00
f8
88
80
80
80
80
80
00
00
ENDCHAR
STARTCHAR pi
ENCODING 227
SWIDTH 666 0
DWIDTH 6 0
BBX 6 10 0 -2
BITMAP
00
00
00
f8
50
50
50
50
00
00
ENDCHAR
STARTCHAR SIGMA
ENCODING 228
SWIDTH 666 0
DWIDTH 6 0
BBX 6 10 0 -2
BITMAP
00
f8
88
40
20
40
88
f8
00
00
ENDCHAR
STARTCHAR sigma
ENCODING 229
SWIDTH 666 0
DWIDTH 6 0
BBX 6 10 0 -2
BITMAP
00
00
00
78
90
90
90
60
00
00
ENDCHAR
STARTCHAR mu
ENCODING 230
SWIDTH 666 0
DWIDTH 6 0
BBX 6 10 0 -2
BITMAP
00
00
00
48
48
48
70
40
80
00
ENDCHAR
STARTCHAR gamma
ENCODING 231
SWIDTH 666 0
DWIDTH 6 0
BBX 6 10 0 -2
BITMAP
00
00
00
68
b0
20
20
20
00
00
ENDCHAR
STARTCHAR PHI
ENCODING 232
SWIDTH 666 0
DWIDTH 6 0
BBX 6 10 0 -2
BITMAP
00
70
20
70
88
88
70
20
70
00
ENDCHAR
STARTCHAR THETA
ENCODING 233
SWIDTH 666 0
DWIDTH 6 0
BBX 6 10 0 -2
BITMAP
00
20
50
88
f8
88
50
20
00
00
ENDCHAR
STARTCHAR OMEGA
ENCODING 234
SWIDTH 666 0
DWIDTH 6 0
BBX 6 10 0 -2
BITMAP
00
20
50
88
88
50
50
d8
00
00
ENDCHAR
STARTCHAR delta
ENCODING 235
SWIDTH 666 0
DWIDTH 6 0
BBX 6 10 0 -2
BITMAP
00
38
20
10
78
88
88
70
00
00
ENDCHAR
STARTCHAR infinity
ENCODING 236
SWIDTH 666 0
DWIDTH 6 0
BBX 6 10 0 -2
BITMAP
00
00
00
50
a8
a8
50
00
00
00
ENDCHAR
STARTCHAR phi
ENCODING 237
SWIDTH 666 0
DWIDTH 6 0
BBX 6 10 0 -2
BITMAP
00
00
08
70
a8
a8
70
80
00
00
ENDCHAR
STARTCHAR element_of
ENCODING 238
SWIDTH 666 0
DWIDTH 6 0
BBX 6 10 0 -2
BITMAP
00
38
40
80
f8
80
40
38
00
00
ENDCHAR
STARTCHAR intersect
ENCODING 239
SWIDTH 666 0
DWIDTH 6 0
BBX 6 10 0 -2
BITMAP
00
70
88
88
88
88
88
88
00
00
ENDCHAR
STARTCHAR equivalent_to
ENCODING 240
SWIDTH 666 0
DWIDTH 6 0
BBX 6 10 0 -2
BITMAP
00
00
f8
00
f8
00
f8
00
00
00
ENDCHAR
STARTCHAR +/-
ENCODING 241
SWIDTH 666 0
DWIDTH 6 0
BBX 6 10 0 -2
BITMAP
00
20
20
f8
20
20
00
f8
00
00
ENDCHAR
STARTCHAR >=
ENCODING 242
SWIDTH 666 0
DWIDTH 6 0
BBX 6 10 0 -2
BITMAP
00
40
20
10
20
40
00
f0
00
00
ENDCHAR
STARTCHAR <=
ENCODING 243
SWIDTH 666 0
DWIDTH 6 0
BBX 6 10 0 -2
BITMAP
00
10
20
40
20
10
00
78
00
00
ENDCHAR
STARTCHAR integral-1
ENCODING 244
SWIDTH 666 0
DWIDTH 6 0
BBX 6 10 0 -2
BITMAP
00
10
28
20
20
20
20
20
20
20
ENDCHAR
STARTCHAR integral-2
ENCODING 245
SWIDTH 666 0
DWIDTH 6 0
BBX 6 10 0 -2
BITMAP
20
20
20
20
20
20
20
a0
40
00
ENDCHAR
STARTCHAR divide
ENCODING 246
SWIDTH 666 0
DWIDTH 6 0
BBX 6 10 0 -2
BITMAP
00
30
30
00
78
00
30
30
00
00
ENDCHAR
STARTCHAR similar_to
ENCODING 247
SWIDTH 666 0
DWIDTH 6 0
BBX 6 10 0 -2
BITMAP
00
48
a8
90
48
a8
90
00
00
00
ENDCHAR
STARTCHAR degrees
ENCODING 248
SWIDTH 666 0
DWIDTH 6 0
BBX 6 10 0 -2
BITMAP
00
60
90
90
60
00
00
00
00
00
ENDCHAR
STARTCHAR bullet
ENCODING 249
SWIDTH 666 0
DWIDTH 6 0
BBX 6 10 0 -2
BITMAP
00
00
00
00
60
60
00
00
00
00
ENDCHAR
STARTCHAR dot
ENCODING 250
SWIDTH 666 0
DWIDTH 6 0
BBX 6 10 0 -2
BITMAP
00
00
00
00
00
20
00
00
00
00
ENDCHAR
STARTCHAR square_root
ENCODING 251
SWIDTH 666 0
DWIDTH 6 0
BBX 6 10 0 -2
BITMAP
18
10
10
10
10
d0
50
30
00
00
ENDCHAR
STARTCHAR n-super
ENCODING 252
SWIDTH 666 0
DWIDTH 6 0
BBX 6 10 0 -2
BITMAP
a0
50
50
50
50
00
00
00
00
00
ENDCHAR
STARTCHAR 2-super
ENCODING 253
SWIDTH 666 0
DWIDTH 6 0
BBX 6 10 0 -2
BITMAP
60
90
20
40
f0
00
00
00
00
00
ENDCHAR
STARTCHAR middle_block
ENCODING 254
SWIDTH 666 0
DWIDTH 6 0
BBX 6 10 0 -2
BITMAP
00
00
70
70
70
70
70
00
00
00
ENDCHAR
STARTCHAR null2
ENCODING 255
SWIDTH 666 0
DWIDTH 6 0
BBX 6 10 0 -2
BITMAP
00
00
00
00
00
00
00
00
00
00
ENDCHAR
ENDFONT
